<svg xmlns="http://www.w3.org/2000/svg" width="16" height="16" viewBox="88 344 16 16"><g data-name="tab-inprivate-account-svgrepo-com"><path d="M88 346.2a2.2 2.2 0 0 1 2.2-2.2h10a2.2 2.2 0 0 1 2.2 2.2v3.683a3.207 3.207 0 0 0-1.2-.85V346.2a1 1 0 0 0-1-1h-10a1 1 0 0 0-1 1v10a1 1 0 0 0 1 1h5.003c.018.429.12.83.294 1.2H90.2a2.2 2.2 0 0 1-2.2-2.2v-10Z" fill="#fff" fill-rule="evenodd" data-name="Path 4443"/><path d="M100 353.2a1.2 1.2 0 0 1 0-2.4v.4h2.263a2.398 2.398 0 0 0-.474-.8H100v-.8a2.4 2.4 0 1 0 1.789 4H100v-.4Z" fill="#fff" fill-rule="evenodd" data-name="Path 4444"/><path d="M97.55 355.2c-.465 0-.855.226-1.116.508-.26.28-.434.659-.434 1.047v.307c0 1.57 1.633 2.938 4 2.938v-.8h2.778c.327-.23.596-.502.798-.8H100v.4c-2.023 0-2.8-1.11-2.8-1.738v-.307c0-.037.025-.135.114-.232.086-.092.174-.123.236-.123H100v-.4h3.784a1.708 1.708 0 0 0-.218-.292 1.531 1.531 0 0 0-1.116-.508h-4.9Z" fill="#fff" fill-rule="evenodd" data-name="Path 4445"/><path d="M100 352.8v-.8h2.4c0 .28-.048.55-.137.8H100Z" fill="#fff" fill-rule="evenodd" data-name="Path 4446"/><path d="M103.935 357.6H100v-.8h4v.262c0 .183-.022.363-.065.538Z" fill="#fff" fill-rule="evenodd" data-name="Path 4447"/></g></svg>