<svg xmlns="http://www.w3.org/2000/svg" width="18.333" height="18.332" viewBox="87.833 487.834 18.333 18.332"><g data-name="customer-service-2-svgrepo-com"><path d="M104.5 493.667c.92 0 1.667.746 1.667 1.666v3.334c0 .92-.747 1.666-1.667 1.666h-.885A6.667 6.667 0 0 1 97 506.167V504.5a5 5 0 0 0 5-5v-5a5 5 0 0 0-10 0v5.833h-2.5c-.92 0-1.667-.746-1.667-1.666v-3.334c0-.92.747-1.666 1.667-1.666h.885a6.668 6.668 0 0 1 13.23 0h.885Zm-11.033 6.487.883-1.413c.794.497 1.713.76 2.65.759a4.977 4.977 0 0 0 2.65-.76l.883 1.414A6.636 6.636 0 0 1 97 501.167a6.636 6.636 0 0 1-3.533-1.013Z" fill="#fff" fill-rule="evenodd" data-name="Path 4449"/></g></svg>