<svg xmlns="http://www.w3.org/2000/svg" width="16.649" height="20.666" viewBox="88.676 561.109 16.649 20.666"><g data-name="employee-svgrepo-com"><g data-name="Group 3718"><g data-name="Group 3717"><path d="M97 561.109a4.547 4.547 0 0 0-4.542 4.542A4.547 4.547 0 0 0 97 570.193a4.547 4.547 0 0 0 4.542-4.542A4.547 4.547 0 0 0 97 561.11Z" fill="#fff" fill-rule="evenodd" data-name="Path 4450"/></g></g><g data-name="Group 3720"><g data-name="Group 3719"><path d="M98.086 572.436V579.242a1.085 1.085 0 1 1-2.172 0V572.436c-4.079.533-7.238 4.031-7.238 8.253 0 .6.486 1.086 1.085 1.086h14.478c.6 0 1.085-.486 1.085-1.086 0-4.222-3.16-7.72-7.238-8.253Z" fill="#fff" fill-rule="evenodd" data-name="Path 4451"/></g></g></g></svg>