<svg xmlns="http://www.w3.org/2000/svg" width="17" height="17" viewBox="90 975 17 17"><g data-name="setting-1-svgrepo-com"><path d="M98.502 981.487c-1.155 0-2.091.901-2.091 2.013 0 1.112.936 2.013 2.091 2.013 1.156 0 2.092-.901 2.092-2.013 0-1.112-.936-2.013-2.092-2.013Zm-3.486 2.013c0-1.853 1.561-3.355 3.486-3.355 1.926 0 3.486 1.502 3.486 3.355s-1.56 3.355-3.486 3.355c-1.925 0-3.486-1.502-3.486-3.355Z" fill="#fff" fill-rule="evenodd" data-name="Path 4452"/><path d="m105.641 983.5.2.112c1.104.616 1.485 1.973.855 3.04l-1.28 2.167c-.637 1.08-2.069 1.453-3.186.83l-.172-.097v.211c0 1.236-1.04 2.237-2.324 2.237h-2.537c-1.283 0-2.324-1.001-2.324-2.237v-.182l-.082.047c-1.119.64-2.565.27-3.208-.818l-1.28-2.166c-.625-1.06-.254-2.406.834-3.028l.203-.116-.203-.116c-1.088-.622-1.459-1.969-.833-3.028l1.28-2.166c.642-1.089 2.088-1.458 3.207-.818l.082.047v-.182c0-1.236 1.04-2.237 2.324-2.237h2.537c1.284 0 2.324 1.001 2.324 2.237v.211l.172-.096c1.117-.624 2.549-.251 3.187.83l1.279 2.166c.63 1.067.249 2.424-.854 3.04l-.2.112Zm-1.393.774a.878.878 0 0 1 0-1.548l.894-.499a.877.877 0 0 0 .342-1.216l-1.28-2.166a.95.95 0 0 0-1.274-.332l-.87.486c-.62.346-1.396-.085-1.396-.774v-.988c0-.494-.416-.895-.93-.895h-2.537c-.513 0-.93.4-.93.895v.969c0 .693-.784 1.123-1.404.769l-.785-.45a.95.95 0 0 0-1.283.328l-1.279 2.166a.876.876 0 0 0 .334 1.211l.875.5a.878.878 0 0 1 0 1.54l-.875.5a.876.876 0 0 0-.334 1.21l1.28 2.167a.95.95 0 0 0 1.282.327l.785-.449c.62-.354 1.405.076 1.405.77v.968c0 .494.416.895.93.895h2.536c.514 0 .93-.4.93-.895v-.988c0-.69.776-1.12 1.396-.774l.87.486a.95.95 0 0 0 1.275-.332l1.279-2.166a.877.877 0 0 0-.342-1.216l-.894-.499Z" fill="#fff" fill-rule="evenodd" data-name="Path 4453"/></g></svg>