<svg width="50" height="51" viewBox="0 0 50 51" fill="none" xmlns="http://www.w3.org/2000/svg">
<path d="M25 3.27783C20.6049 3.27783 16.3084 4.58114 12.654 7.02295C8.99957 9.46476 6.15129 12.9354 4.46935 16.996C2.7874 21.0566 2.34733 25.5247 3.20477 29.8354C4.06222 34.1461 6.17869 38.1057 9.28652 41.2135C12.3944 44.3214 16.354 46.4378 20.6647 47.2953C24.9754 48.1527 29.4435 47.7127 33.5041 46.0307C37.5647 44.3488 41.0353 41.5005 43.4771 37.8461C45.9189 34.1916 47.2222 29.8952 47.2222 25.5001C47.2222 19.6064 44.881 13.954 40.7135 9.78657C36.546 5.6191 30.8937 3.27783 25 3.27783ZM35.625 33.2639C34.2361 37.4306 30.6111 38.5973 27.4306 38.8195V41.5973C27.4306 42.0577 27.2477 42.4993 26.9221 42.8249C26.5965 43.1505 26.1549 43.3334 25.6944 43.3334C25.234 43.3334 24.7924 43.1505 24.4668 42.8249C24.1412 42.4993 23.9583 42.0577 23.9583 41.5973V38.8195C20.769 38.5205 17.7438 37.2668 15.2778 35.2223C15.1109 35.0663 14.9764 34.879 14.8818 34.6711C14.7873 34.4632 14.7347 34.2386 14.727 34.0104C14.7192 33.7821 14.7565 33.5545 14.8367 33.3407C14.917 33.1268 15.0385 32.9308 15.1944 32.7639C15.3504 32.5971 15.5377 32.4625 15.7456 32.368C15.9536 32.2735 16.1781 32.2209 16.4064 32.2131C16.6346 32.2054 16.8622 32.2427 17.0761 32.3229C17.2899 32.4031 17.4859 32.5247 17.6528 32.6806C19.4705 34.1444 21.6576 35.0769 23.9722 35.3751V26.6528C22.1277 26.3686 20.363 25.7016 18.7917 24.6945C17.4708 23.8661 16.4821 22.6009 15.9974 21.119C15.5127 19.6371 15.5628 18.0322 16.1389 16.5834C16.9583 14.4862 19.5 12.0973 23.9722 11.7084V9.18061C23.9722 8.72016 24.1551 8.27858 24.4807 7.95299C24.8063 7.62741 25.2479 7.4445 25.7083 7.4445C26.1688 7.4445 26.6104 7.62741 26.936 7.95299C27.2615 8.27858 27.4445 8.72016 27.4445 9.18061V11.7639C29.9271 12.039 32.2839 13.0009 34.25 14.5417C34.5225 14.8623 34.6693 15.271 34.6631 15.6917C34.6569 16.1124 34.4981 16.5166 34.2162 16.829C33.9343 17.1414 33.5486 17.3408 33.1308 17.3902C32.7129 17.4395 32.2913 17.3354 31.9445 17.0973C30.6183 16.1274 29.072 15.5022 27.4445 15.2778V23.7917C28.2778 23.9723 29.1667 24.1667 30.0972 24.4584C31.1736 24.7268 32.1836 25.2128 33.065 25.8864C33.9465 26.56 34.6806 27.4069 35.2222 28.3751C35.9957 29.8879 36.1405 31.6449 35.625 33.2639Z" fill="#014BC3" fill-opacity="0.34"/>
<path d="M29.0556 27.7777C28.5 27.6111 27.9583 27.4722 27.4306 27.3611V35.3611C30.2083 35.0833 31.6944 34.1111 32.3333 32.1666C32.5463 31.4354 32.4718 30.6503 32.125 29.9722C31.7861 29.4198 31.3398 28.941 30.8126 28.564C30.2854 28.1871 29.6879 27.9198 29.0556 27.7777Z" fill="#014BC3" fill-opacity="0.34"/>
<path d="M19.3611 17.8334C19.0713 18.5534 19.0523 19.3541 19.3077 20.087C19.5631 20.82 20.0755 21.4355 20.75 21.8195C21.7319 22.4486 22.826 22.8825 23.9722 23.0973V15.1528C21.0556 15.5001 19.7083 16.9445 19.3611 17.8334Z" fill="#014BC3" fill-opacity="0.34"/>
</svg>
