<svg width="23" height="21" viewBox="0 0 23 21" fill="none" xmlns="http://www.w3.org/2000/svg">
<path d="M12.325 9.1875C11.775 9.05625 11.225 8.79375 10.8125 8.4C10.4 8.26875 10.2625 7.875 10.2625 7.6125C10.2625 7.35 10.4 6.95625 10.675 6.825C11.0875 6.5625 11.5 6.3 11.9125 6.43125C12.7375 6.43125 13.425 6.825 13.8375 7.35L15.075 5.775C14.6625 5.38125 14.25 5.11875 13.8375 4.85625C13.425 4.59375 12.875 4.4625 12.325 4.4625V2.625H10.675V4.4625C9.9875 4.59375 9.3 4.9875 8.75 5.5125C8.2 6.16875 7.7875 6.95625 7.925 7.74375C7.925 8.53125 8.2 9.31875 8.75 9.84375C9.4375 10.5 10.4 10.8938 11.225 11.2875C11.6375 11.4188 12.1875 11.6813 12.6 11.9438C12.875 12.2063 13.0125 12.6 13.0125 12.9937C13.0125 13.3875 12.875 13.7813 12.6 14.175C12.1875 14.5688 11.6375 14.7 11.225 14.7C10.675 14.7 9.9875 14.5688 9.575 14.175C9.1625 13.9125 8.75 13.5188 8.475 13.125L7.1 14.5688C7.5125 15.0938 7.925 15.4875 8.475 15.8813C9.1625 16.275 9.9875 16.6687 10.8125 16.6687V18.375H12.325V16.4062C13.15 16.275 13.8375 15.8812 14.3875 15.3562C15.075 14.7 15.4875 13.65 15.4875 12.7312C15.4875 11.9437 15.2125 11.025 14.525 10.5C13.8375 9.84375 13.15 9.45 12.325 9.1875V9.1875ZM11.5 0C5.45 0 0.5 4.725 0.5 10.5C0.5 16.275 5.45 21 11.5 21C17.55 21 22.5 16.275 22.5 10.5C22.5 4.725 17.55 0 11.5 0ZM11.5 19.5562C6.275 19.5562 2.0125 15.4875 2.0125 10.5C2.0125 5.5125 6.275 1.44375 11.5 1.44375C16.725 1.44375 20.9875 5.5125 20.9875 10.5C20.9875 15.4875 16.725 19.5562 11.5 19.5562V19.5562Z" fill="white"/>
</svg>
