<svg xmlns="http://www.w3.org/2000/svg" width="383.828" height="263.355" viewBox="370.672 201.921 383.828 263.355"><g data-name="13151"><g data-name="Group 3806"><g data-name="Group 3753"><path d="M717.169 462.6c14.032-20.712 35.503-61.308 37.172-86.906 2.467-37.842-24.276-31.376-43.803-51.02-8.515-8.567 16.039-36.524-20.264-58.914-22.522-13.89-54.224 13.812-72.908-20.831-19.147-35.507-92.841-47.93-152.73-27.702-91.284 30.83 2.358 61.008-57.026 85.403-35.527 14.594-18.666 46.357-15.115 56.689 3.092 8.997 20.562 19.644-4.883 42.924-21.183 19.382-4.582 50.483 1.571 60.356H717.17Z" fill="#fcecdb" fill-rule="evenodd" data-name="Path 4499"/><path d="M372.16 461.117h376.38c.822 0 1.488.932 1.488 2.08 0 1.149-.666 2.079-1.488 2.079H372.16c-.823 0-1.488-.93-1.488-2.079 0-1.148.665-2.08 1.487-2.08Z" fill="#9596a3" fill-rule="evenodd" data-name="Path 4500"/></g><g data-name="Group 3805"><g data-name="Group 3776"><g data-name="Group 3774"><path d="m479.859 223.033 1.01-2.56-1.935-2.029 1.334-2.791-2.732-1.525 1.37-3.222-2.34-1.714.811-3.315 1.256.303-.607 2.48 2.472 1.808-1.319 3.097 2.78 1.55-1.475 3.08 1.892 1.981-.936 2.375 1.515 1.04-.736 1.064-2.36-1.622Z" fill="#50bfa5" fill-rule="evenodd" data-name="Path 4501"/><path d="m393.112 361.941-1.21-3.13-3.264-.78a.461.461 0 0 1-.184-.806l2.603-2.118-.268-3.345a.461.461 0 0 1 .71-.425l2.819 1.822 3.099-1.29a.462.462 0 0 1 .623.545l-.861 3.244 2.183 2.549a.46.46 0 0 1-.325.76l-3.351.183-1.75 2.864a.462.462 0 0 1-.824-.073Z" fill="#f7cc7f" fill-rule="evenodd" data-name="Path 4502"/><g data-name="Group 3762"><path d="M411.844 322.7a3.38 3.38 0 0 1 3.255-5.922 3.38 3.38 0 0 1-3.255 5.922Z" fill="#f7cc7f" fill-rule="evenodd" data-name="Path 4503"/><g data-name="Group 3754"><path d="M422.968 323.046c-.933-.36-1.881-.826-2.857-1.055-.839-.198-1.316 1.002-.547 1.421.94.513 2.032.818 3.034 1.196.405.153.874-.213.966-.595.11-.468-.191-.809-.596-.967Z" fill="#f7cc7f" fill-rule="evenodd" data-name="Path 4504"/></g><g data-name="Group 3755"><path d="M422.581 315.912c-1.16.584-2.377.962-3.594 1.41-.95.348-.538 1.648.431 1.482 1.391-.239 2.753-.851 4.006-1.481.396-.2.5-.766.284-1.127-.241-.405-.728-.484-1.127-.284Z" fill="#f7cc7f" fill-rule="evenodd" data-name="Path 4505"/></g><g data-name="Group 3756"><path d="M416.348 314.422c.033.323.251.524.575.546.782.054 1.274-.773 1.624-1.36.366-.613.63-1.29.801-1.982.254-1.02-1.338-1.403-1.593-.379-.496 2.006-1.506 2.236-1.407 3.175Z" fill="#f7cc7f" fill-rule="evenodd" data-name="Path 4506"/></g><g data-name="Group 3757"><path d="M410.242 311.77c.678 1.606.65 2.545 1.385 2.868.429.19.813.001.97-.43.184-.508-.131-1.054-.29-1.533-.154-.46-.31-.915-.501-1.36-.173-.403-.55-.688-1.01-.555-.384.112-.727.602-.554 1.01Z" fill="#f7cc7f" fill-rule="evenodd" data-name="Path 4507"/></g><g data-name="Group 3758"><path d="M407.957 314.858c-.904-.208-1.208-.322-1.769-.198-.488.108-.704.86-.294 1.18.478.377.736.392 1.685.61a.833.833 0 0 0 .986-.606.83.83 0 0 0-.608-.986Z" fill="#f7cc7f" fill-rule="evenodd" data-name="Path 4508"/></g><g data-name="Group 3759"><path d="M407.493 319.48c-1.673.61-2.085.687-2.336 1.188-.148.293-.082.77.264.91.644.258 1.013.024 2.52-.556.403-.157.673-.553.545-.994-.115-.398-.585-.697-.993-.548Z" fill="#f7cc7f" fill-rule="evenodd" data-name="Path 4509"/></g><g data-name="Group 3760"><path d="M408.56 326.94c-.052.629.88.964 1.275.497.378-.446.42-.686 1.513-3.33.168-.408.095-.882-.324-1.11-.355-.196-.94-.088-1.11.323-1.14 2.742-1.3 2.988-1.353 3.62Z" fill="#f7cc7f" fill-rule="evenodd" data-name="Path 4510"/></g><g data-name="Group 3761"><path d="M414.818 325.724c.42 2.106.076 2.153.515 3.158.2.46 1.008.434 1.195-.02.241-.586.243-.784.141-1.814-.059-.599-.152-1.194-.268-1.784-.087-.437-.62-.678-1.023-.561-.455.132-.646.582-.56 1.02Z" fill="#f7cc7f" fill-rule="evenodd" data-name="Path 4511"/></g></g><path d="m403.429 381.9-2.8 1.587.902 2.206-2.708 1.664.546 2.265-1.872 1.51.643.717 2.505-2.019-.517-2.147 2.815-1.73-.884-2.17 2.536-1.44-1.166-.444Z" fill="#86b1f2" fill-rule="evenodd" data-name="Path 4512"/><g data-name="Group 3771"><path d="M442.932 227.044s-.395-1.425.675-2.78c.954-1.207 2.571-1.283 3.69-.4 1.293 1.023 1.929 3.366.935 7.364-3.657 1.896-6.085 1.822-7.379.8-1.118-.882-1.421-2.472-.467-3.681 1.07-1.355 2.546-1.303 2.546-1.303Z" fill="#f48c7f" fill-rule="evenodd" data-name="Path 4513"/><g data-name="Group 3763"><path d="M435.559 237.435a34.514 34.514 0 0 0 2.753-2.806c.261-.298.801-.737.726-1.168-.04-.223-.186-.382-.427-.381-.44.003-.734.537-.998.837a40.07 40.07 0 0 1-2.77 2.863c-.191.18-.152.517.03.684.21.191.493.149.686-.029Z" fill="#f48c7f" fill-rule="evenodd" data-name="Path 4514"/></g><g data-name="Group 3764"><path d="M451.284 224.23c.39-.431.774-.87 1.158-1.306.367-.42.874-.848 1.08-1.37.152-.386-.214-.753-.593-.542-.492.273-.848.824-1.214 1.244-.382.439-.766.875-1.142 1.32-.404.475.293 1.116.711.654Z" fill="#f48c7f" fill-rule="evenodd" data-name="Path 4515"/></g><g data-name="Group 3765"><path d="M444.822 238.435c-.437-1.358-.134-2.274-.036-3.095.051-.438-.484-.643-.727-.262-.662 1.042-.526 2.54-.153 3.656.197.589 1.107.293.916-.299Z" fill="#f48c7f" fill-rule="evenodd" data-name="Path 4516"/></g><g data-name="Group 3766"><path d="M451.559 235.434a4.304 4.304 0 0 1-1.121-1.372c-.169-.328-.428-1.481-1.013-1.088-.553.37.012 1.33.245 1.741.313.551.74 1.041 1.232 1.437.487.387 1.142-.322.657-.718Z" fill="#f48c7f" fill-rule="evenodd" data-name="Path 4517"/></g><g data-name="Group 3767"><path d="m452.075 229.313 1.17-.26c.39-.087.849-.093 1.066-.47.121-.213.003-.442-.178-.564-.327-.223-.843.01-1.197.093l-1.168.268c-.26.06-.391.386-.314.62.09.27.36.37.62.313Z" fill="#f48c7f" fill-rule="evenodd" data-name="Path 4518"/></g><g data-name="Group 3768"><path d="M437.613 227.685c-3.044-1.04-3.04-1.067-3.389-1.043-.356.025-.539.49-.262.736.273.242.233.198 3.44 1.28.255.086.54-.14.592-.382.062-.289-.126-.504-.38-.59Z" fill="#f48c7f" fill-rule="evenodd" data-name="Path 4519"/></g><g data-name="Group 3769"><path d="M441.1 223.685a7.476 7.476 0 0 0-.87-1.323c-.313-.38-.742-1.005-1.294-.892-.118.025-.238.163-.253.281-.064.496.49.87.776 1.221.314.384.586.803.829 1.233.127.228.456.28.666.145.238-.152.264-.433.145-.665Z" fill="#f48c7f" fill-rule="evenodd" data-name="Path 4520"/></g><g data-name="Group 3770"><path d="M446.42 218.392c-.113-.215-.393-.22-.58-.124-.384.196-.442.846-.514 1.232a8.29 8.29 0 0 0-.14 1.354c-.008.263.267.472.513.459.288-.017.44-.25.458-.513.11-1.719.54-1.878.262-2.408Z" fill="#f48c7f" fill-rule="evenodd" data-name="Path 4521"/></g></g><path d="m410.186 270.39 3.831 3.18-1.488 4.846-1.27-.388 1.23-4.002-3.959-3.285 2.555-5.156-2.9-1.86.808-1.057 3.81 2.44-2.617 5.283Z" fill="#f7cc7f" fill-rule="evenodd" data-name="Path 4522"/><path d="M386.795 304.334c2.124 1.783 5.51.555 6.744-1.68 1.364-2.472.716-5.732-1.39-7.575-2.276-1.997-5.266-1.78-6.958.443-1.647 2.163-.557 4.929 1.915 5.587 1.772.473 3.18-.514 3.211-1.45.023-.73-.793-1.211-1.344-.663-.22.218-.247.573-.14.836-.579.415-1.937.292-2.8-.774-1.104-1.36-.045-3.183 1.315-3.86 1.733-.866 3.662.067 4.76 1.498 1.15 1.503 1.383 3.732.467 5.407-1.04 1.896-3.456 2.597-5.357 1.579-.448-.241-.803.334-.423.652Z" fill="#86b1f2" fill-rule="evenodd" data-name="Path 4523"/><path d="m441.337 266.574 2.197 6.234 6.015-6.51-8.212.276Z" fill="#96d9c9" fill-rule="evenodd" data-name="Path 4524"/><g data-name="Group 3773"><g data-name="Group 3772"><path d="M471.535 254.618a6.258 6.258 0 1 0 11.951-3.724 6.26 6.26 0 1 0-11.951 3.724Z" fill="#f7cc7f" fill-rule="evenodd" data-name="Path 4525"/><path d="M481 252.707a3.345 3.345 0 1 1-6.39 1.992l6.39-1.992Z" fill="#efefef" fill-rule="evenodd" data-name="Path 4526"/></g></g></g><path d="m522.953 202.307.79 2.013-3.098 1.628.79 3.084-2.119 1.598.809 1.072 2.835-2.136-.75-2.923 3.223-1.693-1.188-3.03-1.292.387Z" fill="#466eb6" fill-rule="evenodd" data-name="Path 4527"/><g data-name="Group 3775"><path d="m597.546 251.812.652-1.618a8.465 8.465 0 0 1-1.893-1.186 1.062 1.062 0 0 1-.172-1.443l.04-.055a1.06 1.06 0 0 1 1.546-.179 6.183 6.183 0 0 0 1.72 1.063c.97.392 1.787.284 2.061-.397.261-.648-.12-1.276-1.209-2.21-1.576-1.349-2.477-2.702-1.81-4.354.604-1.499 2.135-2.25 4.103-1.872l.652-1.619 1.67.674-.603 1.498a7.843 7.843 0 0 1 1.464.852 1.062 1.062 0 1 1-1.3 1.68 5.671 5.671 0 0 0-1.411-.816c-1.108-.446-1.658-.113-1.85.364-.226.563.226 1.16 1.455 2.29 1.739 1.532 2.18 2.798 1.561 4.332-.611 1.517-2.205 2.379-4.304 1.93l-.7 1.738-1.672-.672Z" fill="#96d9c9" fill-rule="evenodd" data-name="Path 4528"/></g><path d="M452.72 305.593a.805.805 0 0 1-.139 1.015c-.555.513-1.44 1.114-2.516 1.517-1.575.592-3.324.648-4.899-.067-.984-.447-1.885-1.252-2.521-2.293l-.93.349a.611.611 0 0 1-.787-.359l-.01-.024a.611.611 0 0 1 .359-.787l.763-.287c-.123-.253-.21-.41-.263-.555a5.927 5.927 0 0 1-.24-.862l-.788.296a.61.61 0 1 1-.43-1.145l.955-.358c-.15-1.197.007-2.371.455-3.357.76-1.674 2.192-2.864 3.838-3.483.96-.361 1.749-.467 2.388-.474a.825.825 0 0 1 .832.786v.014a.827.827 0 0 1-.798.863 5.942 5.942 0 0 0-1.856.394c-1.05.395-1.976 1.123-2.507 2.247-.298.657-.438 1.444-.279 2.229l5.37-2.017a.611.611 0 1 1 .43 1.145l-5.608 2.107c.074.271.148.543.212.71.08.215.16.429.293.706l5.62-2.108a.624.624 0 1 1 .438 1.17l-5.38 2.018c.426.63.984 1.1 1.576 1.369 1.173.512 2.253.488 3.445.04a6.724 6.724 0 0 0 1.792-1.01.808.808 0 0 1 1.184.211Z" fill="#86b1f2" fill-rule="evenodd" data-name="Path 4529"/><path d="m578.566 224.808.466-2.305 2.162-.923a.323.323 0 0 0 .032-.579l-2.048-1.154-.21-2.34a.323.323 0 0 0-.54-.21l-1.73 1.591-2.293-.523a.323.323 0 0 0-.365.45l.978 2.136-1.206 2.018a.323.323 0 0 0 .314.487l2.335-.27 1.546 1.77a.323.323 0 0 0 .56-.148Z" fill="#f7cc7f" fill-rule="evenodd" data-name="Path 4530"/><path d="m556.306 206.997-.238-1.637 1.213-1.123a.227.227 0 0 0-.115-.39l-1.63-.279-.693-1.5a.227.227 0 0 0-.408-.01l-.769 1.463-1.641.196a.228.228 0 0 0-.137.384l1.155 1.183-.322 1.622a.227.227 0 0 0 .323.247l1.482-.731 1.443.807a.228.228 0 0 0 .337-.232Z" fill="#f7cc7f" fill-rule="evenodd" data-name="Path 4531"/><path d="m509.424 224.595-.238-1.637 1.213-1.122a.228.228 0 0 0-.115-.391l-1.63-.28-.692-1.5a.228.228 0 0 0-.409-.01l-.769 1.463-1.64.196a.227.227 0 0 0-.137.384l1.154 1.185-.322 1.621a.227.227 0 0 0 .323.248l1.482-.732 1.443.808a.228.228 0 0 0 .337-.233Z" fill="#f7cc7f" fill-rule="evenodd" data-name="Path 4532"/></g><g data-name="Group 3797"><g data-name="Group 3778"><g data-name="Group 3777"><path d="m599.76 257.78-1.023-1.021a.472.472 0 0 0-.67 0l-1.02 1.022a.472.472 0 0 1-.67 0l-1.022-1.02a.472.472 0 0 0-.669 0l-1.02 1.022a.472.472 0 0 1-.67 0l-1.022-1.021a.472.472 0 0 0-.669 0l-1.021 1.022a.473.473 0 0 1-.67 0l-1.022-1.02a.472.472 0 0 0-.668 0l-1.021 1.022a.472.472 0 0 1-.67 0l-1.022-1.021a.473.473 0 0 0-.669 0l-1.021 1.022a.472.472 0 0 1-.669 0l-1.022-1.02a.472.472 0 0 0-.67 0l-1.02 1.022a.472.472 0 0 1-.67 0l-1.022-1.021a.473.473 0 0 0-.669 0l-1.02 1.02a.472.472 0 0 1-.67 0l-1.022-1.02a.472.472 0 0 0-.67 0l-1.02 1.022a.473.473 0 0 1-.67 0l-1.022-1.02a.472.472 0 0 0-.669 0l-1.02 1.022a.472.472 0 0 1-.67 0l-1.022-1.021a.473.473 0 0 0-.67 0l-1.02 1.02a.472.472 0 0 1-.67 0l-1.022-1.02a.472.472 0 0 0-.669 0l-1.02 1.022a.472.472 0 0 1-.67 0l-1.022-1.02a.472.472 0 0 0-.669 0l-1.021 1.022a.472.472 0 0 1-.669 0l-1.022-1.021a.472.472 0 0 0-.67 0l-1.02 1.022a.472.472 0 0 1-.67 0l-1.022-1.02a.472.472 0 0 0-.669 0l-1.02 1.022a.472.472 0 0 1-.67 0l-1.022-1.021a.473.473 0 0 0-.67 0l-1.02 1.022a.473.473 0 0 1-.67 0l-1.022-1.02a.472.472 0 0 0-.669 0l-1.02 1.022a.472.472 0 0 1-.67 0l-1.022-1.021a.473.473 0 0 0-.67 0l-1.02 1.023a.473.473 0 0 1-.669 0l-1.023-1.021a.472.472 0 0 0-.668 0l-1.021 1.022a.472.472 0 0 1-.67 0l-1.022-1.02a.47.47 0 0 0-.807.332l-.373 82.335 64.817.199.284-83.228-1.356 1.356a.483.483 0 0 1-.677.002Z" fill="#f7f7f7" fill-rule="evenodd" data-name="Path 4533"/></g><path d="m601.5 341.11-64.817.027-.001-3.11 64.817-.027.002 3.11z" fill="#e3e3e3" fill-rule="evenodd" data-name="Rectangle 2066"/><path d="m550.51 328.42 37.685-.016a1.92 1.92 0 0 1 .001 3.84l-37.683.016a1.92 1.92 0 0 1-.002-3.84Z" fill="#d4d4d4" fill-rule="evenodd" data-name="Path 4534"/><path d="m569.951 320.574 25.47-.011a1.333 1.333 0 0 1 .002 2.666l-25.47.01a1.332 1.332 0 1 1-.002-2.665Z" fill="#e0e0e0" fill-rule="evenodd" data-name="Path 4535"/><path d="m569.949 313.231 25.469-.01a1.333 1.333 0 0 1 .002 2.665l-25.47.01a1.333 1.333 0 0 1-.002-2.665Z" fill="#e0e0e0" fill-rule="evenodd" data-name="Path 4536"/><path d="m569.945 306.649 25.47-.01a1.333 1.333 0 0 1 .001 2.665l-25.469.01a1.333 1.333 0 0 1-.002-2.666Z" fill="#e0e0e0" fill-rule="evenodd" data-name="Path 4537"/><path d="m554.24 296.596 29.988-.013a.963.963 0 0 1 .002 1.925l-29.989.013a.962.962 0 1 1-.002-1.925Z" fill="#e0e0e0" fill-rule="evenodd" data-name="Path 4538"/><path d="m547.837 292.76 42.79-.02a.963.963 0 0 1 .002 1.925l-42.79.02a.963.963 0 0 1-.964-.963.96.96 0 0 1 .962-.963Z" fill="#e0e0e0" fill-rule="evenodd" data-name="Path 4539"/><path d="m543.28 320.584 6.985-.003a1.333 1.333 0 0 1 .001 2.666l-6.985.003a1.333 1.333 0 1 1 0-2.665Z" fill="#e0e0e0" fill-rule="evenodd" data-name="Path 4540"/><path d="m543.278 313.242 6.984-.003a1.333 1.333 0 0 1 .002 2.665l-6.985.003a1.332 1.332 0 1 1-.001-2.665Z" fill="#e0e0e0" fill-rule="evenodd" data-name="Path 4541"/><path d="m543.275 306.66 6.984-.004a1.333 1.333 0 0 1 .001 2.665l-6.985.004a1.334 1.334 0 0 1 0-2.666Z" fill="#e0e0e0" fill-rule="evenodd" data-name="Path 4542"/><path d="m544.358 283.373 49.946-.021a2.43 2.43 0 0 1 .002 4.859l-49.946.021a2.43 2.43 0 0 1-2.43-2.428 2.431 2.431 0 0 1 2.428-2.43Z" fill="#d4d4d4" fill-rule="evenodd" data-name="Path 4543"/><path d="m556.14 275.584 26.375-.011a1.504 1.504 0 0 1 .002 3.008l-26.376.01a1.504 1.504 0 1 1 0-3.008Z" fill="#d4d4d4" fill-rule="evenodd" data-name="Path 4544"/></g><path d="m607.08 462.596-75.638.032a8.321 8.321 0 0 1-8.324-8.316l-.047-112.388a8.32 8.32 0 0 1 8.316-8.324l75.639-.032a8.321 8.321 0 0 1 8.323 8.317l.048 112.387a8.32 8.32 0 0 1-8.317 8.324Z" fill="#014cc3" fill-rule="evenodd" data-name="Path 4545"/><path d="M612.44 335.616c1.26 1.458 2.051 3.334 2.053 5.413l.047 112.388a8.321 8.321 0 0 1-8.317 8.324l-75.638.031c-2.078.002-3.956-.787-5.416-2.047 1.526 1.764 3.755 2.903 6.272 2.903l75.638-.032a8.32 8.32 0 0 0 8.316-8.324l-.048-112.388c.001-2.515-1.141-4.742-2.907-6.268Z" fill="#ababab" fill-rule="evenodd" data-name="Path 4546"/><g data-name="Group 3796"><path d="m603.86 386.145-69.254.005a2.312 2.312 0 0 1-2.311-2.31l-.002-38.224a2.312 2.312 0 0 1 2.31-2.312l69.254-.004a2.312 2.312 0 0 1 2.312 2.312l.001 38.223a2.31 2.31 0 0 1-2.31 2.31Z" fill="#82a2d1" fill-rule="evenodd" data-name="Path 4547"/><path d="m532.801 384.288-.001-38.223a2.312 2.312 0 0 1 2.31-2.311l69.253-.005c.467 0 .903.14 1.267.38a2.303 2.303 0 0 0-1.772-.83l-69.253.005a2.31 2.31 0 0 0-2.31 2.312l.001 38.223c0 .809.416 1.52 1.045 1.933a2.299 2.299 0 0 1-.54-1.484Z" fill="#638ac2" fill-rule="evenodd" data-name="Path 4548"/><path d="m595.463 363.051-52.461.003a2.785 2.785 0 0 1-2.786-2.785v-8.949a2.785 2.785 0 0 1 2.786-2.785l52.461-.003a2.787 2.787 0 0 1 2.787 2.785v8.95a2.787 2.787 0 0 1-2.787 2.784Z" fill="#3f7885" fill-rule="evenodd" data-name="Path 4549"/><path d="M540.684 360.738v-8.949a2.785 2.785 0 0 1 2.785-2.785L595.93 349c.65 0 1.247.223 1.72.596a2.782 2.782 0 0 0-2.19-1.065l-52.461.003a2.785 2.785 0 0 0-2.785 2.785v8.95c0 .888.417 1.679 1.065 2.188a2.777 2.777 0 0 1-.595-1.72Z" fill="#33464a" fill-rule="evenodd" data-name="Path 4550"/><g data-name="Group 3795"><g data-name="Group 3794"><g data-name="Group 3779"><path d="m551.728 402.25-15.345.007c-1.235 0-2.236-1-2.236-2.235l-.003-6.737c0-1.234 1-2.236 2.235-2.236l15.344-.007c1.235 0 2.236 1 2.236 2.234l.003 6.737c0 1.235-1 2.237-2.234 2.237Z" fill="#87a9ae" fill-rule="evenodd" data-name="Path 4551"/><path d="m550.933 401.414-15.345.007c-1.235 0-2.236-1-2.236-2.235l-.003-6.737c0-1.234 1-2.236 2.235-2.236l15.344-.006c1.235 0 2.236 1 2.236 2.235l.003 6.737c0 1.233-1 2.235-2.234 2.235Z" fill="#87a9ae" fill-rule="evenodd" data-name="Path 4552"/><path d="m534.136 399.954-.003-6.62c0-1.267.974-2.295 2.177-2.295l15.46-.008c.398 0 .751.143 1.071.338-.378-.684-1.051-1.165-1.857-1.165l-15.458.006c-1.203 0-2.179 1.029-2.179 2.296l.004 6.62c0 .848.458 1.558 1.107 1.954-.187-.336-.322-.707-.322-1.126Z" fill="#87a9ae" fill-rule="evenodd" data-name="Path 4553"/></g><g data-name="Group 3780"><path d="m551.734 418.202-15.345.006c-1.235 0-2.236-1-2.236-2.234l-.003-6.737c0-1.235 1-2.236 2.234-2.236l15.345-.006c1.235 0 2.236 1 2.236 2.234l.003 6.737c0 1.233-1 2.235-2.234 2.236Z" fill="#87a9ae" fill-rule="evenodd" data-name="Path 4554"/><path d="m550.939 417.365-15.345.007c-1.235 0-2.236-1-2.236-2.234l-.003-6.737c0-1.235 1-2.236 2.235-2.236l15.344-.006c1.235 0 2.236 1 2.236 2.234l.003 6.737c0 1.234-1 2.235-2.234 2.235Z" fill="#87a9ae" fill-rule="evenodd" data-name="Path 4555"/><path d="m534.142 415.906-.003-6.621c0-1.266.974-2.295 2.177-2.295l15.459-.007c.397 0 .75.142 1.072.338-.377-.684-1.051-1.165-1.857-1.165l-15.458.006c-1.203 0-2.178 1.028-2.178 2.295l.003 6.62c0 .848.458 1.558 1.107 1.954-.185-.335-.322-.707-.322-1.125Z" fill="#87a9ae" fill-rule="evenodd" data-name="Path 4556"/></g><g data-name="Group 3781"><path d="m551.74 434.154-15.345.006c-1.235 0-2.236-1-2.236-2.235l-.003-6.737c0-1.235 1-2.236 2.235-2.236l15.344-.006c1.235 0 2.236 1 2.236 2.235l.003 6.736a2.234 2.234 0 0 1-2.234 2.237Z" fill="#87a9ae" fill-rule="evenodd" data-name="Path 4557"/><path d="m550.945 433.318-15.345.007c-1.235 0-2.236-1-2.236-2.234l-.003-6.737c0-1.235 1-2.237 2.235-2.237l15.344-.005c1.235 0 2.236 1 2.236 2.234l.003 6.737a2.236 2.236 0 0 1-2.234 2.235Z" fill="#87a9ae" fill-rule="evenodd" data-name="Path 4558"/><path d="m534.148 431.857-.003-6.62c0-1.267.974-2.295 2.177-2.295l15.46-.008c.398 0 .751.143 1.073.338-.378-.684-1.052-1.165-1.857-1.165l-15.458.007c-1.203 0-2.179 1.028-2.179 2.295l.003 6.62a2.28 2.28 0 0 0 1.108 1.954c-.187-.336-.324-.707-.324-1.126Z" fill="#87a9ae" fill-rule="evenodd" data-name="Path 4559"/></g><g data-name="Group 3782"><path d="m577.166 402.239-15.344.006c-1.235 0-2.236-1-2.236-2.235l-.003-6.737c0-1.235 1-2.236 2.234-2.236l15.345-.006c1.235 0 2.236 1 2.237 2.234l.003 6.737a2.237 2.237 0 0 1-2.236 2.237Z" fill="#87a9ae" fill-rule="evenodd" data-name="Path 4560"/><path d="m576.372 401.403-15.345.006c-1.235 0-2.236-1-2.236-2.235l-.003-6.737c0-1.235 1-2.236 2.234-2.236l15.345-.006c1.235 0 2.236 1 2.236 2.235l.003 6.737c0 1.233-1 2.234-2.234 2.236Z" fill="#87a9ae" fill-rule="evenodd" data-name="Path 4561"/><path d="m559.575 399.942-.003-6.62c0-1.267.974-2.295 2.177-2.295l15.459-.008c.397 0 .75.143 1.072.338-.378-.684-1.051-1.165-1.857-1.165l-15.458.008c-1.203 0-2.179 1.029-2.179 2.295l.004 6.62c0 .848.457 1.558 1.107 1.954-.185-.336-.322-.708-.322-1.127Z" fill="#87a9ae" fill-rule="evenodd" data-name="Path 4562"/></g><g data-name="Group 3783"><path d="m577.173 418.19-15.345.006c-1.235 0-2.236-1-2.236-2.235l-.003-6.737c0-1.234 1-2.236 2.234-2.236l15.345-.007c1.235 0 2.236 1 2.236 2.234l.003 6.738a2.234 2.234 0 0 1-2.234 2.237Z" fill="#87a9ae" fill-rule="evenodd" data-name="Path 4563"/><path d="m576.378 417.354-15.345.006c-1.235 0-2.236-1-2.236-2.234l-.003-6.738c0-1.235 1-2.236 2.234-2.236l15.345-.005c1.235 0 2.236 1 2.237 2.234l.004 6.737a2.238 2.238 0 0 1-2.236 2.236Z" fill="#87a9ae" fill-rule="evenodd" data-name="Path 4564"/><path d="m559.581 415.893-.003-6.62c0-1.267.974-2.295 2.177-2.295l15.46-.008c.397 0 .75.143 1.072.339-.377-.684-1.05-1.165-1.856-1.165l-15.459.007c-1.203 0-2.178 1.03-2.178 2.295l.003 6.621a2.28 2.28 0 0 0 1.107 1.954c-.186-.337-.323-.708-.323-1.128Z" fill="#87a9ae" fill-rule="evenodd" data-name="Path 4565"/></g><g data-name="Group 3784"><path d="m577.179 434.141-15.345.007c-1.235 0-2.236-1-2.236-2.235l-.003-6.737c0-1.235 1-2.236 2.235-2.236l15.344-.008c1.235 0 2.236 1 2.236 2.235l.003 6.737a2.234 2.234 0 0 1-2.234 2.237Z" fill="#87a9ae" fill-rule="evenodd" data-name="Path 4566"/><path d="m576.384 433.306-15.345.006c-1.235 0-2.236-1-2.236-2.235l-.003-6.737c0-1.235 1-2.236 2.235-2.236l15.344-.006c1.235 0 2.236 1 2.236 2.235l.003 6.736a2.234 2.234 0 0 1-2.234 2.237Z" fill="#87a9ae" fill-rule="evenodd" data-name="Path 4567"/><path d="m559.587 431.845-.003-6.62c0-1.267.974-2.295 2.177-2.295l15.46-.008c.397 0 .751.142 1.073.338-.378-.684-1.052-1.165-1.857-1.165l-15.459.008c-1.203 0-2.178 1.028-2.178 2.295l.003 6.62a2.28 2.28 0 0 0 1.107 1.954c-.186-.337-.323-.707-.323-1.127Z" fill="#87a9ae" fill-rule="evenodd" data-name="Path 4568"/></g><g data-name="Group 3785"><path d="m577.186 450.094-15.344.006c-1.235 0-2.236-1-2.238-2.234l-.003-6.737c0-1.235 1-2.237 2.235-2.237l15.344-.007c1.235 0 2.236 1 2.238 2.235l.003 6.737c0 1.234-1 2.236-2.235 2.237Z" fill="#87a9ae" fill-rule="evenodd" data-name="Path 4569"/><path d="m576.391 449.257-15.345.006c-1.234 0-2.236-1-2.236-2.234l-.003-6.737c0-1.235 1-2.236 2.235-2.236l15.345-.007c1.234 0 2.236 1 2.237 2.235l.003 6.737a2.237 2.237 0 0 1-2.236 2.236Z" fill="#87a9ae" fill-rule="evenodd" data-name="Path 4570"/><path d="m559.595 447.798-.003-6.62c0-1.267.974-2.296 2.177-2.296l15.458-.007c.398 0 .751.142 1.073.338-.378-.684-1.052-1.165-1.857-1.165l-15.459.008c-1.203 0-2.178 1.028-2.178 2.295l.003 6.62c0 .848.458 1.558 1.107 1.954-.186-.337-.321-.709-.321-1.127Z" fill="#87a9ae" fill-rule="evenodd" data-name="Path 4571"/></g><g data-name="Group 3786"><path d="m602.605 402.227-15.345.006c-1.234 0-2.236-1-2.236-2.235l-.003-6.737c0-1.235 1-2.236 2.235-2.236l15.344-.006c1.235 0 2.237 1 2.238 2.234l.003 6.738a2.236 2.236 0 0 1-2.236 2.236Z" fill="#87a9ae" fill-rule="evenodd" data-name="Path 4572"/><path d="m601.81 401.391-15.344.008c-1.235 0-2.237-1-2.238-2.235l-.003-6.737c0-1.235 1-2.236 2.235-2.236l15.344-.006c1.235 0 2.236 1 2.236 2.234l.003 6.737a2.231 2.231 0 0 1-2.233 2.235Z" fill="#87a9ae" fill-rule="evenodd" data-name="Path 4573"/><path d="m585.014 399.93-.003-6.62c0-1.267.974-2.295 2.178-2.295l15.459-.007c.397 0 .75.143 1.072.339-.378-.684-1.051-1.165-1.857-1.165l-15.458.007c-1.203 0-2.178 1.029-2.178 2.295l.002 6.62c0 .849.459 1.558 1.108 1.955-.186-.339-.323-.709-.323-1.13Z" fill="#87a9ae" fill-rule="evenodd" data-name="Path 4574"/></g><g data-name="Group 3787"><path d="m553.721 380.652-15.422.006c-.784 0-1.42-.634-1.42-1.418l-.001-2.064c0-.784.634-1.42 1.418-1.42l15.422-.006c.784 0 1.42.636 1.42 1.419l.001 2.063a1.417 1.417 0 0 1-1.418 1.42Z" fill="#87a9ae" fill-rule="evenodd" data-name="Path 4575"/><path d="m552.99 380.286-15.422.006c-.784 0-1.42-.634-1.42-1.418l-.002-2.063c0-.785.635-1.42 1.419-1.42l15.422-.006c.784 0 1.42.634 1.42 1.418l.001 2.063a1.42 1.42 0 0 1-1.418 1.42Z" fill="#87a9ae" fill-rule="evenodd" data-name="Path 4576"/></g><g data-name="Group 3788"><path d="m577.163 380.643-15.421.006c-.785 0-1.42-.635-1.42-1.419l-.002-2.063c0-.784.634-1.42 1.419-1.42l15.421-.006c.785 0 1.42.634 1.42 1.419l.002 2.063a1.417 1.417 0 0 1-1.419 1.42Z" fill="#87a9ae" fill-rule="evenodd" data-name="Path 4577"/><path d="m576.432 380.277-15.422.006a1.42 1.42 0 0 1-1.42-1.418l-.001-2.063c0-.784.634-1.42 1.418-1.42l15.422-.006c.785 0 1.42.634 1.42 1.418l.002 2.063a1.42 1.42 0 0 1-1.419 1.42Z" fill="#87a9ae" fill-rule="evenodd" data-name="Path 4578"/></g><g data-name="Group 3789"><path d="m600.606 380.632-15.422.006c-.785 0-1.42-.634-1.42-1.418l-.002-2.063c0-.785.634-1.42 1.419-1.42l15.422-.006c.784 0 1.42.634 1.42 1.418l.001 2.063c0 .785-.634 1.42-1.418 1.42Z" fill="#87a9ae" fill-rule="evenodd" data-name="Path 4579"/><path d="m599.873 380.266-15.422.007c-.784 0-1.42-.635-1.42-1.42l-.001-2.062c0-.784.635-1.42 1.418-1.42l15.422-.006c.784 0 1.42.634 1.42 1.418l.001 2.063a1.417 1.417 0 0 1-1.418 1.42Z" fill="#87a9ae" fill-rule="evenodd" data-name="Path 4580"/></g><g data-name="Group 3790"><path d="m602.613 418.18-15.345.006c-1.235 0-2.236-1-2.236-2.235l-.003-6.737c0-1.235 1-2.236 2.235-2.236l15.344-.008c1.235 0 2.236 1 2.236 2.235l.003 6.737a2.238 2.238 0 0 1-2.234 2.237Z" fill="#87a9ae" fill-rule="evenodd" data-name="Path 4581"/><path d="m601.816 417.342-15.344.006c-1.235 0-2.236-1-2.236-2.234l-.003-6.737c0-1.235 1-2.236 2.234-2.236l15.345-.006c1.235 0 2.236.999 2.236 2.234l.003 6.737a2.234 2.234 0 0 1-2.235 2.236Z" fill="#87a9ae" fill-rule="evenodd" data-name="Path 4582"/><path d="m585.021 415.883-.003-6.62c0-1.267.974-2.295 2.177-2.295l15.46-.008c.398 0 .751.143 1.073.338-.378-.684-1.052-1.165-1.857-1.165l-15.458.007c-1.204 0-2.179 1.029-2.179 2.296l.003 6.62c0 .848.458 1.558 1.108 1.954-.188-.337-.324-.709-.324-1.127Z" fill="#87a9ae" fill-rule="evenodd" data-name="Path 4583"/></g><g data-name="Group 3791"><path d="m602.619 434.13-15.345.007c-1.235 0-2.236-1-2.236-2.235l-.003-6.737c0-1.234 1-2.236 2.235-2.236l15.344-.007c1.235 0 2.236 1 2.236 2.234l.003 6.737c0 1.235-1 2.238-2.234 2.238Z" fill="#87a9ae" fill-rule="evenodd" data-name="Path 4584"/><path d="m601.824 433.295-15.345.006c-1.235 0-2.236-1-2.236-2.235l-.003-6.737c0-1.235 1-2.235 2.235-2.235l15.344-.007c1.235 0 2.236 1 2.236 2.235l.003 6.737c0 1.233-1 2.235-2.234 2.236Z" fill="#87a9ae" fill-rule="evenodd" data-name="Path 4585"/><path d="m585.027 431.834-.002-6.62c0-1.266.974-2.295 2.177-2.295l15.46-.006c.397 0 .75.142 1.072.338-.378-.684-1.052-1.165-1.857-1.165l-15.458.007c-1.203 0-2.179 1.03-2.179 2.295l.003 6.621c0 .848.458 1.558 1.108 1.954-.188-.338-.324-.71-.324-1.129Z" fill="#87a9ae" fill-rule="evenodd" data-name="Path 4586"/></g><g data-name="Group 3792"><path d="m551.746 450.105-15.345.008c-1.235 0-2.236-1-2.236-2.235l-.003-6.737c0-1.235 1-2.236 2.235-2.236l15.344-.006c1.235 0 2.236 1 2.236 2.235l.003 6.737a2.233 2.233 0 0 1-2.234 2.234Z" fill="#87a9ae" fill-rule="evenodd" data-name="Path 4587"/><path d="m550.951 449.27-15.345.007c-1.235 0-2.236-1-2.236-2.235l-.003-6.737c0-1.234 1-2.236 2.235-2.236l15.344-.006c1.235 0 2.237 1 2.237 2.235l.002 6.737a2.236 2.236 0 0 1-2.234 2.234Z" fill="#87a9ae" fill-rule="evenodd" data-name="Path 4588"/><path d="m534.155 447.808-.004-6.62c0-1.266.974-2.295 2.177-2.295l15.46-.008c.398 0 .751.143 1.073.339-.378-.685-1.051-1.165-1.857-1.165l-15.458.005c-1.203 0-2.179 1.029-2.179 2.296l.003 6.62c0 .848.458 1.558 1.108 1.954-.187-.335-.323-.707-.323-1.126Z" fill="#87a9ae" fill-rule="evenodd" data-name="Path 4589"/></g><g data-name="Group 3793"><path d="m602.625 450.082-15.344.006c-1.235 0-2.237-1-2.238-2.234l-.003-6.737c0-1.235 1-2.236 2.234-2.236l15.345-.008c1.235 0 2.236 1 2.238 2.235l.003 6.737c0 1.236-1 2.237-2.235 2.237Z" fill="#87a9ae" fill-rule="evenodd" data-name="Path 4590"/><path d="m601.83 449.246-15.345.006c-1.234 0-2.236-1-2.237-2.234l-.003-6.737c0-1.235 1-2.236 2.234-2.236l15.345-.006c1.234 0 2.236 1 2.237 2.234l.003 6.737c0 1.234-1 2.235-2.234 2.236Z" fill="#87a9ae" fill-rule="evenodd" data-name="Path 4591"/><path d="m585.033 447.785-.002-6.62c0-1.266.974-2.295 2.177-2.295l15.46-.008c.397 0 .75.143 1.072.338-.378-.684-1.051-1.164-1.857-1.164l-15.458.008c-1.203 0-2.179 1.028-2.179 2.295l.004 6.62c0 .848.457 1.557 1.107 1.954-.187-.337-.324-.71-.324-1.128Z" fill="#87a9ae" fill-rule="evenodd" data-name="Path 4592"/></g></g></g></g></g><g data-name="Group 3801"><path d="m664.767 354.306-.419.376a.515.515 0 0 1-.725-.018l-7.436-8.203c-.185-.203-.16-.524.056-.719l.419-.376a.515.515 0 0 1 .725.018l7.436 8.203a.51.51 0 0 1-.056.719Z" fill="#13375b" fill-rule="evenodd" data-name="Path 4593"/><path d="M689.978 347.641c-.993-.811-8.68 2.573-8.583 3.752.097 1.179-5.364 12.599-5.364 12.599l-9.437-7.55-.005.003c-.084-.273-.978-3.21-1.021-3.735-.046-.551-1.64-1.516-2.382-1.373-.74.142.634 1.074.724 1.245.246.466-.704.64-.704.64s-2.726-1.501-2.785-2.384c-.058-.883-.62-2.734-1.21-2.347-.304.2-.303 1.512-.207 2.136-.176-.707-.423-1.506-.664-1.585-.442-.144-.66.418-.581.695.08.275.791 3.28 1.008 3.618.211.33 4.615 3.89 5.25 4.663 0 0 12.206 14.002 13.076 14.367.763.322 3.481-4.504 6.05-7.708 2.572-3.204 9.94-14.502 6.835-17.036Z" fill="#f7a491" fill-rule="evenodd" data-name="Path 4594"/><path d="M714.608 450.6s1.678 1.643 1.716 2.245c.038.602.149 7.06-.537 7.663-.684.602-2.696 1.03-2.05 1.708.489.513 4.25.403 6.74.265.727-.04 1.64-5.863 1.929-6.72.418-1.243 1.436-4.043 1.055-4.91-.185-.42-1.072-1.289-2.32-2.099-1.316-.852-2.572-2.749-2.572-2.749l-3.961 4.597Z" fill="#f48c7f" fill-rule="evenodd" data-name="Path 4595"/><path d="M697.232 454.425s1.502 4.255 1.504 4.266c.112.673.55 2.339.55 2.952 0 2.303-10.347-1.954-8.028-2.975.21-.093.868-.83.938-1.615.106-1.207-.872-2.721-.872-2.721l5.908.093Z" fill="#f7a491" fill-rule="evenodd" data-name="Path 4596"/><g data-name="Group 3798"><path d="M681 375.19s-.755 7.628-.755 7.742c0 12.34-2.438 36.442-1.974 38.761 1.132 5.659 13.303 34.523 13.303 34.523l6.58-.79-8.573-34.558 3.153-13.911 4.465-27.496-16.2-4.27Z" fill="#355389" fill-rule="evenodd" data-name="Path 4597"/><path d="m703.079 381.937 1.248 7.23 3.377 29.755 12.863 29.08s-1.81 4.23-4.478 4.825l-20.47-29.856-12.716-38.205.446-8.488 19.73 5.659Z" fill="#13375b" fill-rule="evenodd" data-name="Path 4598"/></g><path d="m678.376 357.029 9.122.934s.418-7.504.418-11.083c0-4.343-.368-9.936-.891-9.817-1.468.339-3.443 1.15-4.62 2.772-4.069 5.611-4.029 17.194-4.029 17.194Z" fill="#053b91" fill-rule="evenodd" data-name="Path 4599"/><path d="M682.857 346.113c-.19 1.324-3.698 37.32-3.698 37.32 16.61 8.049 25.775 1.433 25.775 1.433s-.543-25.276.108-28.717c.431-2.277.968-17.402-.502-17.825-1.887-.543-4.049-1.121-6.408-1.367-2.013-.21-9.83-.33-11.229.14.002.001-3.242 3.448-4.046 9.016Z" fill="#014cc3" fill-rule="evenodd" data-name="Path 4600"/><path d="M721.059 448.71s-3.866 10.923-5.38 11.449c-.402.14-2.33.494-2.694 1.35-.109.258 0 1.118 0 1.118h8.058s1.02-4.812 1.423-6.927c0 0 2.133-5.165 1.897-5.635-.237-.47-3.304-1.356-3.304-1.356Z" fill="#184655" fill-rule="evenodd" data-name="Path 4601"/><path d="m699.875 462.402-1.185-3.756s-2.488 1.056-3.733.88c-1.244-.176-3.674-.88-3.674-.88-4.967 1.64-9.035 2.436-8.295 3.756h16.887Z" fill="#184655" fill-rule="evenodd" data-name="Path 4602"/><g data-name="Group 3799"><path d="M677.096 372.384a2.047 2.047 0 0 1-.25-.187c.295-3.526.242-6.943-.862-8.099.025-.056.267-.57.518-1.103 1.28.992 1.886 3.627 1.648 7.907-.017.294-.1.519-.168.886-.37.41-.706.672-.886.596Z" fill="#f7a491" fill-rule="evenodd" data-name="Path 4603"/></g><path d="M721.386 383.815a.97.97 0 0 0 .005-.232c-.244-2.493-2.308-23.426-2.655-24.317-.314-.803-9.565-14.079-9.565-14.079l-4.546 6.217 8.897 11.908c.2.757 3.41 14.889 3.41 14.889s.659 2.575.953 4.118c-.135.372-.267.722-.384 1.01a9.284 9.284 0 0 1-.958 1.546c-.398.536-1.056 1.704-1.137 2.016-.094.364-.264 1.12-.36 1.575-.095.456-.227.988-.25 1.235-.013.15-.168.45-.286.663-.178.316.126.689.469.575.323-.108.574-.528.729-.789.439-.739.67-2.088.78-2.016.11.07.493 2.359.553 2.617.061.259.521 2.914.782 3.4.26.485.604.405.695.1.079-.261-.287-3.98-.287-3.98s-.045-.473.16-.326c.207.149.545 3.523.69 4.016.144.493.471.755.75.358.339-.483-.244-4.061-.244-4.061s-.065-.45.126-.408c.191.042.43 2.917.581 3.165.15.25.525.339.706-.077.21-.488-.336-3.678-.336-3.678s.028-.254.146-.17c.12.085.5 2.52.746 2.745.208.19.381.006.381.006.454-.31-.241-2.627-.235-3.78.006-1.153-.526-2.447-.367-3.82.006-.082.033-.293.051-.426Z" fill="#f8a492" fill-rule="evenodd" data-name="Path 4604"/><path d="m716.399 353.596-7.903 5.323s-4.453-6.65-6.844-9.019c-2.995-2.965 1.09-12.052 3.02-11.538 4.316 1.151 11.727 15.234 11.727 15.234Z" fill="#0847ac" fill-rule="evenodd" data-name="Path 4605"/><path d="m697.553 329.175 1.181 7.817s-4.317 9.308-6.893 8.502c-2.162-.677-.831-8.913-.831-8.913s1.178-4.424.825-6.637c-.354-2.213 5.718-.77 5.718-.77Z" fill="#f7a491" fill-rule="evenodd" data-name="Path 4606"/><path d="M691.835 329.944c-.354-2.213 5.72-.77 5.72-.77l.098.649c-.178.434-.395.805-.659 1.089-1.356 1.465-3.477 2.344-5.31 2.41.183-1.19.295-2.47.151-3.378Z" fill="#f47458" fill-rule="evenodd" data-name="Path 4607"/><g data-name="Group 3800"><path d="M698.55 318.116c.17-.063 1.375 8.903-.91 11.37-2.284 2.466-6.736 3.274-8.332 1.332-1.766-2.15-1.678-11.786 1.875-14.324 3.55-2.538 7.366 1.622 7.366 1.622Z" fill="#f7a491" fill-rule="evenodd" data-name="Path 4608"/><path d="M692.534 311.699c2.746.561 4.524 2.245 5.178 2.963 1.247.147 2.942.839 4.69 3.745 2.152 3.574.563 7.535-1.941 9.478-2.505 1.944-2.47 4.187-2.47 4.187l-.396-1.16a6.513 6.513 0 0 1-.314-2.735c.06-.554.178-1.152.405-1.645.602-1.297-1.294-2.16-1.826-3.239-.41-.83-.43-2.733-1.074-4.106l-.77-1.048s-1.78-1.388-3.517-.997c-1.738.391-1.487-6.163 2.035-5.443Z" fill="#184655" fill-rule="evenodd" data-name="Path 4609"/><path d="M695.978 324.89c-.018 1.093.478 1.988 1.107 2 .63.01 1.155-.867 1.173-1.961.018-1.094-.478-1.989-1.107-2-.63-.012-1.155.866-1.173 1.96Z" fill="#f7a491" fill-rule="evenodd" data-name="Path 4610"/></g><path d="m692.267 327.417-3.443-.18s.012 1.317 1.523 1.44c1.844.15 1.92-1.26 1.92-1.26Z" fill="#fff" fill-rule="evenodd" data-name="Path 4611"/></g><g data-name="Group 3804"><path d="M412.906 462.246h-2.027l7.55-39.229 1.684.32-7.207 38.909Z" fill="#0e2e35" fill-rule="evenodd" data-name="Path 4612"/><path d="m468.763 462.07 1.684-.32-7.277-38.733-1.684.32 7.277 38.733Z" fill="#0e2e35" fill-rule="evenodd" data-name="Path 4613"/><path d="M449.994 462.246h-2.026l7.549-39.229 1.685.32-7.208 38.909Z" fill="#0e2e35" fill-rule="evenodd" data-name="Path 4614"/><path d="m431.363 462.246 1.644.02-7.237-39.072-1.684.32 7.277 38.732Z" fill="#0e2e35" fill-rule="evenodd" data-name="Path 4615"/><path d="M438.711 370.187c-6.668.716-15.3 1.474-23.964 16.226-9.47 16.125-4.484 40.212 2.99 46.905 7.475 6.693 31.886 14.958 52.407 2.585 0 0 12.39-7.499 6.032-19.941-9.787-19.15-8.403-23.143-12.778-30.648-4.375-7.505-10.53-16.648-24.687-15.127Z" fill="#fae0b2" fill-rule="evenodd" data-name="Path 4616"/><path d="M414.747 386.413c5.913-10.07 11.812-13.618 17.082-15.085-2.04 2.117-4.105 4.84-6.173 8.36-9.47 16.125-4.484 40.212 2.99 46.905 6.628 5.936 26.577 13.104 45.32 6.023-1.927 2.138-3.822 3.286-3.822 3.286-20.52 12.372-44.933 4.108-52.407-2.586-7.476-6.691-12.46-30.778-2.99-46.903Z" fill="#f7cc7f" fill-rule="evenodd" data-name="Path 4617"/><g data-name="Group 3803"><path d="m460.123 394.696 1.714 5.16-5.223-2.062 3.509-3.098Z" fill="#f79c8d" fill-rule="evenodd" data-name="Path 4618"/><path d="M454.737 379.341c.349.013 1.303.333 2.699 2.971 1.782 3.368 4.387 13.543 4.387 13.543l-7.775 2.896-.998-2.124-1.644-16.349c-.002-.001 3.236-.942 3.331-.937Z" fill="#dd513a" fill-rule="evenodd" data-name="Path 4619"/><path d="M444.46 377.874c2.223.003 7.724.651 10.277 1.467 0 0 1.875 16.121-1.688 28.371-.798 2.743.66 11.367.66 11.367l-23.04-.303s2.73-20.852 1.701-24.22c-1.028-3.368-1.052-15.107-1.052-15.107s.157-.024 5.176-.892c2.342-.403 5.591-.686 7.965-.683Z" fill="#f47458" fill-rule="evenodd" data-name="Path 4620"/><path d="M441.776 449.002s.51 5.883 1.447 7.511c.938 1.629-.05 4.398-.099 4.778-.05.382-1.972.923-5.03.598-3.058-.326-3.008-1.031-2.763-2.172.248-1.141 1.874-2.606 1.973-3.693.098-1.086-.938-4.995-.938-4.995l5.41-2.027Z" fill="#f7a491" fill-rule="evenodd" data-name="Path 4621"/><path d="M451.11 414.225s15.903-.883 19.454 1.268-.642 6.567-.642 6.567-12.947 5.63-34.622 6.88c-5.134.296-5.575-13.383-4.615-14.515.959-1.132 20.425-.2 20.425-.2Z" fill="#256653" fill-rule="evenodd" data-name="Path 4622"/><path d="M437.712 462.346c-3.15-.336-2.76-1.883-2.506-3.057.159-.736 1.062-1.602 1.6-2.421.282.224.739.62 2.107 1.024 1.42.419 3.366-.411 4.607-.93.442 1.646.463 3.744.422 4.062-.051.39-3.082 1.657-6.23 1.322Z" fill="#184655" fill-rule="evenodd" data-name="Path 4623"/><path d="M439.449 425.602c.636 4.808 3.782 28.743 3.782 28.743l-7.3.906s-8.976-31.242-8.517-36.02c.46-4.779 3.82-5.18 3.82-5.18s6.534-1.176 8.215 11.551Z" fill="#3c8f7c" fill-rule="evenodd" data-name="Path 4624"/><path d="M431.069 381.242c2.154-.808 3.208 18.6 3.498 26.589 3.815.367 10.463.002 12.12-.122.778-.059 2.574-.716 3.347-.817.794-.105 1.513-.158 1.903-.09.142.026 4.118 1.65 4.46 2.007.421.443 1.562 1.558 1.37 2.04-.193.483-2.194-1.343-2.194-1.343l-.978-.55c1.216 1.19 3.539 2.755 3.203 3.325-.326.557-2.42-1.032-3.912-2.116 1.28 1.156 2.87 3.226 2.505 3.548-.33.29-2.14-2.105-4.072-2.795-.716-.255-1.43.452-1.995.538-.414.063-1.054.197-1.46.082l-2.094-.593c-.713.064-.731.487-1.452.64-.836.178-2.207.366-3.272.625-6.132 1.5-8.177 2.194-10.053 2.192-5.686-.004-6.015-31.25-.924-33.16Z" fill="#f7a491" fill-rule="evenodd" data-name="Path 4625"/><path d="M426.98 399.463c-.403-8.183-.344-18.268 4.243-19.99 1.81-.68 5 3.404 4.427 20.155-2.45.203-6.045.366-8.67-.165Z" fill="#dd513a" fill-rule="evenodd" data-name="Path 4626"/><path d="M452.642 395.948h-.467l-7.028 17.272.483-.072 7.012-17.2Z" fill="#f79c8d" fill-rule="evenodd" data-name="Path 4627"/><path d="M463.12 454.034s-.637 2.042.504 3.392c1.14 1.35 5.88 2.676 6.502 3.407.622.732.575 1.355.575 1.355l-13.301-.365.145-4.017.613-2.887 4.962-.885Z" fill="#f7a491" fill-rule="evenodd" data-name="Path 4628"/><path d="M464.45 458.1s-3.417 1.382-5.068.564c-1.65-.819-1.6-1.045-2.078-.74-.478.305-.65 4.07-.65 4.07l14.957.44c1.04-.024 1.567-.79.722-1.447-.58-.451-1.25-.751-1.63-.97-1.17-.67-6.252-1.917-6.252-1.917Z" fill="#184655" fill-rule="evenodd" data-name="Path 4629"/><path d="M462.617 417.995c1.028-2.164 3.366-4.98 7.48-3.285 3.923 1.619 4.977 5.595 3.74 9.667-1.239 4.071-9.388 28.01-9.673 31.3l-6.507.043s1.184-18.954 1.473-23.536c.278-4.407 1.707-10.446 3.487-14.19Z" fill="#3c8f7c" fill-rule="evenodd" data-name="Path 4630"/><path d="M473.18 395.948h-21.751a1.42 1.42 0 0 0-1.313.883l-6.697 16.39h-11.992a.608.608 0 0 0-.607.608c0 .337.271.608.607.608h34.13c.939 0 1.788-.552 2.173-1.41l6.744-15.075a1.421 1.421 0 0 0-1.294-2.004Z" fill-rule="evenodd" data-name="Path 4631"/><path d="M461.468 405.492c-.147.735-.787 1.228-1.429 1.1-.643-.13-1.044-.83-.898-1.568.147-.736.787-1.229 1.43-1.1.642.13 1.044.832.897 1.568Z" fill="#fff" fill-rule="evenodd" data-name="Path 4632"/><g data-name="Group 3802"><path d="M449.63 358.185c-.656-.22-1.302-.47-1.924-.77-.704-.34-1.617-.738-2.194-.828-1.213-.188-3.3-.062-4.45 1.186-1.436 1.557-3.984.281-3.472 8.434.581 9.226 5.712 8.214 5.836 8.058.125-.156 4.576-5.903 4.576-5.903s1.556 3.404 1.556 3.28c-.001-.121 7.946-10.806.071-13.457Z" fill="#0e2e35" fill-rule="evenodd" data-name="Path 4633"/><path d="m445.734 374.946.443 3.297s.992 4.75-.284 5.666c-1.276.916-5.428-5.801-5.428-5.801l.439-8.354 4.83 5.192Z" fill="#f7a491" fill-rule="evenodd" data-name="Path 4634"/><path d="M440.763 372.461c1.054 2.85 3.565 4.602 5.347 5.281l-.376-2.796-4.83-5.192-.141 2.707Z" fill="#f47458" fill-rule="evenodd" data-name="Path 4635"/><path d="M445.471 360.662c2.705-.437 5.13 1.739 5.062 4.447a33.377 33.377 0 0 1-.37 4.229c-.588 3.806-3.184 7.157-4.901 6.858-1.717-.299-6.036-3.581-5.276-8.997.47-3.347 2.648-6.079 5.485-6.537Z" fill="#f7a491" fill-rule="evenodd" data-name="Path 4636"/><path d="M441.178 367.844c-.146.837-.815 1.418-1.497 1.3-.683-.119-1.118-.894-.973-1.731.144-.838.815-1.419 1.498-1.3.68.118 1.116.893.972 1.73Z" fill="#f7a491" fill-rule="evenodd" data-name="Path 4637"/><path d="M440.206 366.113s2.075.515 2.846-.82c.77-1.334 3.525-4.215 7.026-3.021 3.502 1.195-3.08-2.905-3.361-2.905-.28 0-3.643-.023-3.643-.023s-2.59 2.131-2.685 2.366c-.094.234-.84 2.787-.84 2.787l.657 1.616Z" fill="#0e2e35" fill-rule="evenodd" data-name="Path 4638"/></g><path d="m444.003 371.683 3.777.722s-.36 1.423-2.031 1.154c-2.036-.329-1.746-1.876-1.746-1.876Z" fill="#fff" fill-rule="evenodd" data-name="Path 4639"/></g></g></g></g></g></svg>