<svg width="25" height="24" viewBox="0 0 25 24" fill="none" xmlns="http://www.w3.org/2000/svg">
<g clip-path="url(#clip0_300_2061)">
<path d="M8.75006 15C11.4424 15 13.6251 12.8174 13.6251 10.125C13.6251 7.43261 11.4424 5.25 8.75006 5.25C6.05767 5.25 3.87506 7.43261 3.87506 10.125C3.87506 12.8174 6.05767 15 8.75006 15Z" stroke="white" stroke-width="1.5" stroke-linecap="round" stroke-linejoin="round"/>
<path d="M15.0698 5.43173C15.7403 5.24281 16.4436 5.19978 17.1321 5.30552C17.8207 5.41126 18.4786 5.66333 19.0615 6.04475C19.6444 6.42616 20.1389 6.92807 20.5115 7.51666C20.8841 8.10525 21.1263 8.76685 21.2217 9.45692C21.3171 10.147 21.2635 10.8495 21.0645 11.5171C20.8655 12.1847 20.5258 12.8019 20.0682 13.3272C19.6107 13.8524 19.0458 14.2735 18.4118 14.5621C17.7777 14.8507 17.0892 15.0001 16.3926 15.0001" stroke="white" stroke-width="1.5" stroke-linecap="round" stroke-linejoin="round"/>
<path d="M1.99951 18.5059C2.76089 17.4229 3.77166 16.539 4.9465 15.9288C6.12133 15.3186 7.42574 15.0001 8.74959 15C10.0734 14.9999 11.3779 15.3184 12.5528 15.9285C13.7276 16.5386 14.7385 17.4225 15.4999 18.5054" stroke="white" stroke-width="1.5" stroke-linecap="round" stroke-linejoin="round"/>
<path d="M16.3926 15C17.7166 14.999 19.0213 15.3171 20.1962 15.9273C21.3712 16.5375 22.3819 17.4218 23.1426 18.5054" stroke="white" stroke-width="1.5" stroke-linecap="round" stroke-linejoin="round"/>
</g>
<defs>
<clipPath id="clip0_300_2061">
<rect width="24" height="24" fill="white" transform="translate(0.5)"/>
</clipPath>
</defs>
</svg>
