<svg width="31" height="23" viewBox="0 0 31 23" fill="none" xmlns="http://www.w3.org/2000/svg">
<path d="M1.96889 10.7188L10.9689 1.71883C11.1103 1.58222 11.2998 1.50662 11.4964 1.50833C11.6931 1.51004 11.8812 1.58891 12.0203 1.72797C12.1593 1.86703 12.2382 2.05514 12.2399 2.25178C12.2416 2.44843 12.166 2.63788 12.0294 2.77934L4.31039 10.4983H28.7499C28.9488 10.4983 29.1396 10.5774 29.2802 10.718C29.4209 10.8587 29.4999 11.0494 29.4999 11.2483C29.4999 11.4472 29.4209 11.638 29.2802 11.7787C29.1396 11.9193 28.9488 11.9983 28.7499 11.9983H4.31039L12.0294 19.7173C12.17 19.8582 12.249 20.0491 12.2488 20.2481C12.2487 20.4471 12.1695 20.638 12.0286 20.7786C11.8878 20.9192 11.6969 20.9981 11.4979 20.998C11.2988 20.9979 11.108 20.9187 10.9674 20.7778L1.96739 11.7778C1.82679 11.6372 1.7478 11.4465 1.7478 11.2476C1.7478 11.0487 1.82679 10.858 1.96739 10.7173L1.96889 10.7188Z" fill="#3BDC5F" stroke="black" stroke-width="3"/>
</svg>
