<svg width="22" height="22" viewBox="0 0 22 22" fill="none" xmlns="http://www.w3.org/2000/svg">
<path d="M21.0993 15.1457L21.1682 15.2146L21.0993 15.1457L15.6349 20.61C15.4301 20.8036 15.1626 20.9203 14.8756 20.9203H7.13308C6.857 20.9203 6.57852 20.8031 6.37465 20.5993L0.910334 15.1349C0.716709 14.9301 0.6 14.6626 0.6 14.3756V6.63308C0.6 6.35627 0.717708 6.07799 0.909371 5.88633L6.38633 0.409371C6.57799 0.217708 6.85627 0.1 7.13308 0.1H14.8872C15.1633 0.1 15.4418 0.21718 15.6457 0.421049L21.1109 5.88633C21.3027 6.07813 21.4192 6.35522 21.4087 6.62923L21.4086 6.62923V6.63308L21.4086 14.3872L21.4086 14.3882C21.41 14.5287 21.3834 14.6681 21.3303 14.7981C21.2772 14.9282 21.1986 15.0463 21.0993 15.1457ZM14.3968 18.7847H14.4382L14.4675 18.7554L19.2554 13.9675L19.1847 13.8968H19.2847V7.12355V7.08213L19.2554 7.05284L14.4675 2.26488L14.4382 2.23559H14.3968H7.62355H7.58213L7.55284 2.26488L2.76488 7.05284L2.73559 7.08213V7.12355V13.8968V13.9382L2.76488 13.9675L7.55284 18.7554L7.58213 18.7847H7.62355H14.3968Z" fill="white" stroke="#0E1A2E" stroke-width="0.2"/>
<path d="M12.0779 15.1813C12.0779 15.7711 11.5999 16.2491 11.0101 16.2491C10.4204 16.2491 9.94235 15.7711 9.94235 15.1813C9.94235 14.5916 10.4204 14.1135 11.0101 14.1135C11.5999 14.1135 12.0779 14.5916 12.0779 15.1813Z" fill="white" stroke="#0E1A2E" stroke-width="0.2"/>
<path d="M9.94235 5.83898C9.94235 5.25192 10.4231 4.77118 11.0101 4.77118C11.5972 4.77118 12.0779 5.25192 12.0779 5.83898V11.678C12.0779 12.265 11.5972 12.7457 11.0101 12.7457C10.4231 12.7457 9.94235 12.265 9.94235 11.678V5.83898Z" fill="white" stroke="#0E1A2E" stroke-width="0.2"/>
</svg>
