<svg width="24" height="24" viewBox="0 0 24 24" fill="none" xmlns="http://www.w3.org/2000/svg">
<mask id="path-1-inside-1_300_2084" fill="white">
<path d="M8.10454 23.0149C7.54349 23.0116 6.99874 22.826 6.5524 22.4861L4.17246 20.7155C3.62324 20.2873 3.25883 19.665 3.15406 18.9765C3.04928 18.288 3.21211 17.5855 3.60909 17.0133C3.81913 16.7032 3.95262 16.3477 3.99858 15.9759C4.04455 15.6042 4.00169 15.2268 3.87352 14.8748L3.80454 14.6909C3.7153 14.3723 3.55219 14.0793 3.32845 13.8355C3.10471 13.5918 2.82665 13.4043 2.51684 13.2882H2.33288C1.66129 13.0624 1.1059 12.5807 0.787311 11.9479C0.46872 11.315 0.412652 10.582 0.631282 9.908L1.57406 6.9187C1.66085 6.57235 1.82063 6.24855 2.04271 5.96897C2.26479 5.68939 2.54404 5.46048 2.86176 5.29758C3.15765 5.14512 3.48139 5.05429 3.81339 5.03058C4.1454 5.00686 4.47876 5.05076 4.79331 5.15961C5.1358 5.27487 5.50125 5.30475 5.85791 5.24664C6.21457 5.18853 6.55164 5.0442 6.83983 4.82619L6.9893 4.71121C7.25016 4.50306 7.461 4.23902 7.60626 3.93855C7.75151 3.63809 7.8275 3.30885 7.8286 2.97512V2.69918C7.82551 1.9957 8.10045 1.31948 8.59357 0.817743C9.08669 0.316011 9.75805 0.0293995 10.4615 0.0203094H13.3933C13.7355 0.0212318 14.0742 0.0897581 14.3899 0.221953C14.7056 0.354148 14.9921 0.547406 15.2329 0.79063C15.7391 1.30547 16.0203 2.00018 16.0147 2.72218V3.0441C16.0089 3.36114 16.0776 3.67512 16.2154 3.9607C16.3532 4.24629 16.5562 4.49549 16.808 4.68822L16.9345 4.7802C17.1925 4.9737 17.4935 5.10194 17.8118 5.15399C18.1301 5.20604 18.4563 5.18036 18.7625 5.07913L19.1535 4.95266C19.4847 4.84287 19.8346 4.80091 20.1823 4.82929C20.5301 4.85766 20.8686 4.95578 21.1776 5.1178C21.4866 5.27983 21.7598 5.50243 21.981 5.77233C22.2021 6.04223 22.3666 6.3539 22.4647 6.68875L23.373 9.58607C23.5831 10.2557 23.5257 10.9806 23.2127 11.6088C22.8997 12.2369 22.3555 12.7194 21.6944 12.9548L21.4644 13.0353C21.1262 13.146 20.8204 13.3381 20.5738 13.5947C20.3272 13.8513 20.1474 14.1646 20.0502 14.5069C19.9587 14.8252 19.937 15.1594 19.9866 15.4869C20.0362 15.8143 20.156 16.1271 20.3377 16.404L20.6366 16.8409C21.033 17.4163 21.1943 18.1215 21.0875 18.812C20.9806 19.5025 20.6136 20.1259 20.0617 20.5545L17.7508 22.3366C17.4716 22.5501 17.1516 22.7042 16.8107 22.7894C16.4697 22.8746 16.1148 22.8892 15.768 22.8321C15.4212 22.775 15.0897 22.6475 14.794 22.4575C14.4984 22.2675 14.2447 22.019 14.0486 21.7272L13.9107 21.5318C13.7224 21.2488 13.4654 21.0181 13.1639 20.8613C12.8623 20.7045 12.5259 20.6266 12.1861 20.635C11.8618 20.6434 11.5441 20.7279 11.2585 20.8817C10.9729 21.0354 10.7275 21.2542 10.542 21.5203L10.2775 21.8997C10.0814 22.1935 9.82725 22.444 9.53065 22.6358C9.23404 22.8276 8.9013 22.9566 8.55293 23.0149C8.40382 23.0295 8.25364 23.0295 8.10454 23.0149ZM3.26417 11.0807C3.91341 11.3122 4.49924 11.6929 4.97451 12.1922C5.44977 12.6914 5.80121 13.2952 6.00053 13.9551V14.093C6.24879 14.779 6.33031 15.5142 6.23835 16.2379C6.14639 16.9615 5.88359 17.653 5.47165 18.2551C5.39894 18.3354 5.35867 18.4399 5.35867 18.5482C5.35867 18.6566 5.39894 18.7611 5.47165 18.8414L7.94357 20.7155C7.97582 20.7408 8.01312 20.7589 8.05296 20.7687C8.0928 20.7784 8.13426 20.7795 8.17455 20.7719C8.21485 20.7642 8.25305 20.7481 8.28658 20.7245C8.32011 20.7009 8.34821 20.6704 8.36897 20.635L8.63341 20.2556C9.03224 19.6793 9.56486 19.2083 10.1856 18.883C10.8064 18.5577 11.4968 18.3878 12.1976 18.3878C12.8984 18.3878 13.5888 18.5577 14.2095 18.883C14.8303 19.2083 15.3629 19.6793 15.7617 20.2556L15.8997 20.4625C15.9491 20.5327 16.0229 20.5819 16.1067 20.6005C16.1451 20.6062 16.1842 20.604 16.2218 20.5941C16.2593 20.5842 16.2945 20.5669 16.3251 20.543L18.6936 18.7494C18.7765 18.6836 18.831 18.5886 18.846 18.4838C18.861 18.379 18.8352 18.2725 18.774 18.1861L18.4751 17.7492C18.0856 17.1812 17.8286 16.533 17.7232 15.8524C17.6177 15.1719 17.6664 14.4763 17.8658 13.8171C18.0678 13.1242 18.4333 12.49 18.9315 11.9678C19.4297 11.4456 20.046 11.0507 20.7286 10.8163L20.9585 10.7358C21.0544 10.6974 21.1311 10.6227 21.172 10.5279C21.213 10.4331 21.2147 10.326 21.177 10.2299L20.2802 7.36709C20.2587 7.317 20.2272 7.27181 20.1876 7.23426C20.1481 7.19671 20.1014 7.16758 20.0502 7.14864C20.0164 7.13147 19.979 7.12253 19.941 7.12253C19.9031 7.12253 19.8656 7.13147 19.8318 7.14864L19.4409 7.27512C18.7796 7.49336 18.0752 7.54774 17.3883 7.43359C16.7014 7.31943 16.0524 7.04016 15.4973 6.61977L15.4513 6.51629C14.9186 6.11288 14.4867 5.59146 14.1895 4.993C13.8922 4.39453 13.7378 3.73531 13.7382 3.0671V2.71068C13.7403 2.59986 13.6991 2.49261 13.6232 2.41175C13.5571 2.35197 13.471 2.31916 13.3818 2.31977H10.4615C10.4146 2.3227 10.3688 2.33484 10.3267 2.35551C10.2846 2.37618 10.2469 2.40497 10.216 2.44022C10.185 2.47547 10.1613 2.5165 10.1462 2.56094C10.1311 2.60538 10.1249 2.65236 10.1281 2.69918V2.98662C10.1281 3.67305 9.97061 4.35034 9.66762 4.96628C9.36463 5.58223 8.92427 6.12039 8.38047 6.53929L8.23101 6.65426C7.64433 7.10094 6.95679 7.39645 6.22898 7.51474C5.50116 7.63304 4.75542 7.57048 4.05748 7.3326C4.00526 7.31507 3.94874 7.31507 3.89652 7.3326C3.83163 7.37202 3.78277 7.4331 3.75855 7.50506L2.80427 10.5059C2.77101 10.6081 2.77881 10.7192 2.82601 10.8158C2.87322 10.9123 2.95613 10.9867 3.05722 11.0232L3.26417 11.0807Z"/>
</mask>
<path d="M8.10454 23.0149C7.54349 23.0116 6.99874 22.826 6.5524 22.4861L4.17246 20.7155C3.62324 20.2873 3.25883 19.665 3.15406 18.9765C3.04928 18.288 3.21211 17.5855 3.60909 17.0133C3.81913 16.7032 3.95262 16.3477 3.99858 15.9759C4.04455 15.6042 4.00169 15.2268 3.87352 14.8748L3.80454 14.6909C3.7153 14.3723 3.55219 14.0793 3.32845 13.8355C3.10471 13.5918 2.82665 13.4043 2.51684 13.2882H2.33288C1.66129 13.0624 1.1059 12.5807 0.787311 11.9479C0.46872 11.315 0.412652 10.582 0.631282 9.908L1.57406 6.9187C1.66085 6.57235 1.82063 6.24855 2.04271 5.96897C2.26479 5.68939 2.54404 5.46048 2.86176 5.29758C3.15765 5.14512 3.48139 5.05429 3.81339 5.03058C4.1454 5.00686 4.47876 5.05076 4.79331 5.15961C5.1358 5.27487 5.50125 5.30475 5.85791 5.24664C6.21457 5.18853 6.55164 5.0442 6.83983 4.82619L6.9893 4.71121C7.25016 4.50306 7.461 4.23902 7.60626 3.93855C7.75151 3.63809 7.8275 3.30885 7.8286 2.97512V2.69918C7.82551 1.9957 8.10045 1.31948 8.59357 0.817743C9.08669 0.316011 9.75805 0.0293995 10.4615 0.0203094H13.3933C13.7355 0.0212318 14.0742 0.0897581 14.3899 0.221953C14.7056 0.354148 14.9921 0.547406 15.2329 0.79063C15.7391 1.30547 16.0203 2.00018 16.0147 2.72218V3.0441C16.0089 3.36114 16.0776 3.67512 16.2154 3.9607C16.3532 4.24629 16.5562 4.49549 16.808 4.68822L16.9345 4.7802C17.1925 4.9737 17.4935 5.10194 17.8118 5.15399C18.1301 5.20604 18.4563 5.18036 18.7625 5.07913L19.1535 4.95266C19.4847 4.84287 19.8346 4.80091 20.1823 4.82929C20.5301 4.85766 20.8686 4.95578 21.1776 5.1178C21.4866 5.27983 21.7598 5.50243 21.981 5.77233C22.2021 6.04223 22.3666 6.3539 22.4647 6.68875L23.373 9.58607C23.5831 10.2557 23.5257 10.9806 23.2127 11.6088C22.8997 12.2369 22.3555 12.7194 21.6944 12.9548L21.4644 13.0353C21.1262 13.146 20.8204 13.3381 20.5738 13.5947C20.3272 13.8513 20.1474 14.1646 20.0502 14.5069C19.9587 14.8252 19.937 15.1594 19.9866 15.4869C20.0362 15.8143 20.156 16.1271 20.3377 16.404L20.6366 16.8409C21.033 17.4163 21.1943 18.1215 21.0875 18.812C20.9806 19.5025 20.6136 20.1259 20.0617 20.5545L17.7508 22.3366C17.4716 22.5501 17.1516 22.7042 16.8107 22.7894C16.4697 22.8746 16.1148 22.8892 15.768 22.8321C15.4212 22.775 15.0897 22.6475 14.794 22.4575C14.4984 22.2675 14.2447 22.019 14.0486 21.7272L13.9107 21.5318C13.7224 21.2488 13.4654 21.0181 13.1639 20.8613C12.8623 20.7045 12.5259 20.6266 12.1861 20.635C11.8618 20.6434 11.5441 20.7279 11.2585 20.8817C10.9729 21.0354 10.7275 21.2542 10.542 21.5203L10.2775 21.8997C10.0814 22.1935 9.82725 22.444 9.53065 22.6358C9.23404 22.8276 8.9013 22.9566 8.55293 23.0149C8.40382 23.0295 8.25364 23.0295 8.10454 23.0149ZM3.26417 11.0807C3.91341 11.3122 4.49924 11.6929 4.97451 12.1922C5.44977 12.6914 5.80121 13.2952 6.00053 13.9551V14.093C6.24879 14.779 6.33031 15.5142 6.23835 16.2379C6.14639 16.9615 5.88359 17.653 5.47165 18.2551C5.39894 18.3354 5.35867 18.4399 5.35867 18.5482C5.35867 18.6566 5.39894 18.7611 5.47165 18.8414L7.94357 20.7155C7.97582 20.7408 8.01312 20.7589 8.05296 20.7687C8.0928 20.7784 8.13426 20.7795 8.17455 20.7719C8.21485 20.7642 8.25305 20.7481 8.28658 20.7245C8.32011 20.7009 8.34821 20.6704 8.36897 20.635L8.63341 20.2556C9.03224 19.6793 9.56486 19.2083 10.1856 18.883C10.8064 18.5577 11.4968 18.3878 12.1976 18.3878C12.8984 18.3878 13.5888 18.5577 14.2095 18.883C14.8303 19.2083 15.3629 19.6793 15.7617 20.2556L15.8997 20.4625C15.9491 20.5327 16.0229 20.5819 16.1067 20.6005C16.1451 20.6062 16.1842 20.604 16.2218 20.5941C16.2593 20.5842 16.2945 20.5669 16.3251 20.543L18.6936 18.7494C18.7765 18.6836 18.831 18.5886 18.846 18.4838C18.861 18.379 18.8352 18.2725 18.774 18.1861L18.4751 17.7492C18.0856 17.1812 17.8286 16.533 17.7232 15.8524C17.6177 15.1719 17.6664 14.4763 17.8658 13.8171C18.0678 13.1242 18.4333 12.49 18.9315 11.9678C19.4297 11.4456 20.046 11.0507 20.7286 10.8163L20.9585 10.7358C21.0544 10.6974 21.1311 10.6227 21.172 10.5279C21.213 10.4331 21.2147 10.326 21.177 10.2299L20.2802 7.36709C20.2587 7.317 20.2272 7.27181 20.1876 7.23426C20.1481 7.19671 20.1014 7.16758 20.0502 7.14864C20.0164 7.13147 19.979 7.12253 19.941 7.12253C19.9031 7.12253 19.8656 7.13147 19.8318 7.14864L19.4409 7.27512C18.7796 7.49336 18.0752 7.54774 17.3883 7.43359C16.7014 7.31943 16.0524 7.04016 15.4973 6.61977L15.4513 6.51629C14.9186 6.11288 14.4867 5.59146 14.1895 4.993C13.8922 4.39453 13.7378 3.73531 13.7382 3.0671V2.71068C13.7403 2.59986 13.6991 2.49261 13.6232 2.41175C13.5571 2.35197 13.471 2.31916 13.3818 2.31977H10.4615C10.4146 2.3227 10.3688 2.33484 10.3267 2.35551C10.2846 2.37618 10.2469 2.40497 10.216 2.44022C10.185 2.47547 10.1613 2.5165 10.1462 2.56094C10.1311 2.60538 10.1249 2.65236 10.1281 2.69918V2.98662C10.1281 3.67305 9.97061 4.35034 9.66762 4.96628C9.36463 5.58223 8.92427 6.12039 8.38047 6.53929L8.23101 6.65426C7.64433 7.10094 6.95679 7.39645 6.22898 7.51474C5.50116 7.63304 4.75542 7.57048 4.05748 7.3326C4.00526 7.31507 3.94874 7.31507 3.89652 7.3326C3.83163 7.37202 3.78277 7.4331 3.75855 7.50506L2.80427 10.5059C2.77101 10.6081 2.77881 10.7192 2.82601 10.8158C2.87322 10.9123 2.95613 10.9867 3.05722 11.0232L3.26417 11.0807Z" fill="white" stroke="#0E1A2E" stroke-width="0.6" mask="url(#path-1-inside-1_300_2084)"/>
<path d="M12.0022 15.3917C11.2359 15.3917 10.4869 15.1645 9.84984 14.7388C9.21275 14.3131 8.7162 13.7081 8.42299 13.0002C8.12977 12.2923 8.05305 11.5133 8.20253 10.7618C8.35201 10.0103 8.72098 9.32005 9.26278 8.77825C9.80457 8.23646 10.4949 7.86749 11.2464 7.71801C11.9979 7.56852 12.7768 7.64524 13.4847 7.93846C14.1926 8.23168 14.7976 8.72823 15.2233 9.36531C15.649 10.0024 15.8762 10.7514 15.8762 11.5176C15.8762 12.5451 15.4681 13.5305 14.7415 14.257C14.015 14.9835 13.0296 15.3917 12.0022 15.3917ZM12.0022 9.64303C11.6314 9.64303 11.269 9.75297 10.9607 9.95896C10.6524 10.1649 10.4121 10.4577 10.2702 10.8002C10.1284 11.1428 10.0912 11.5197 10.1636 11.8833C10.2359 12.247 10.4144 12.581 10.6766 12.8432C10.9388 13.1053 11.2728 13.2839 11.6364 13.3562C12.0001 13.4285 12.377 13.3914 12.7195 13.2495C13.0621 13.1076 13.3548 12.8674 13.5608 12.5591C13.7668 12.2508 13.8767 11.8884 13.8767 11.5176C13.8767 11.0205 13.6792 10.5436 13.3277 10.1921C12.9761 9.84053 12.4993 9.64303 12.0022 9.64303Z" fill="white" stroke="#0E1A2E" stroke-width="0.3"/>
</svg>
