<svg width="64" height="64" viewBox="0 0 64 64" fill="none" xmlns="http://www.w3.org/2000/svg">
<circle cx="32" cy="32" r="32" fill="#E4EEFF"/>
<g opacity="0.7">
<path d="M32 18.6667C28.324 18.6667 25.3333 21.6573 25.3333 25.3333C25.3333 29.0093 28.324 32 32 32C35.676 32 38.6667 29.0093 38.6667 25.3333C38.6667 21.6573 35.676 18.6667 32 18.6667ZM32 29.3333C29.7947 29.3333 28 27.5387 28 25.3333C28 23.128 29.7947 21.3333 32 21.3333C34.2053 21.3333 36 23.128 36 25.3333C36 27.5387 34.2053 29.3333 32 29.3333ZM44 44V42.6667C44 37.5213 39.812 33.3333 34.6667 33.3333H29.3333C24.1867 33.3333 20 37.5213 20 42.6667V44H22.6667V42.6667C22.6667 38.9907 25.6573 36 29.3333 36H34.6667C38.3427 36 41.3333 38.9907 41.3333 42.6667V44H44Z" fill="#014BC3"/>
</g>
</svg>
